<?xml version="1.0" encoding="utf-8"?>
<!-- Generator: Adobe Illustrator 23.0.5, SVG Export Plug-In . SVG Version: 6.00 Build 0)  -->
<svg version="1.1" id="Capa_1" xmlns="http://www.w3.org/2000/svg" xmlns:xlink="http://www.w3.org/1999/xlink" x="0px" y="0px"
	 viewBox="0 0 254.2 445.6" style="enable-background:new 0 0 254.2 445.6;" xml:space="preserve">
<style type="text/css">
	.st0{fill:#FFFDFD;}
</style>
<path class="st0" d="M254.2,117.8c0-0.3,0-0.5-0.1-0.8c0-0.1,0-0.1,0-0.2c-0.1-0.3-0.1-0.5-0.2-0.7c0,0,0,0,0-0.1
	c-0.1-0.2-0.2-0.4-0.3-0.6c0-0.1-0.1-0.1-0.1-0.2c-0.1-0.2-0.3-0.4-0.5-0.6c0,0,0,0,0,0c-0.2-0.2-0.4-0.3-0.6-0.5
	c-0.1,0-0.1-0.1-0.2-0.1c-0.1,0-0.1-0.1-0.2-0.1L67.3,7.2C59.1,2.5,49.8,0,40.4,0c-9.5,0-18.9,2.5-27.1,7.3C5,12.2,0,20.9,0,30.6
	c0,1.3,0.1,2.5,0.3,3.7v274.3c0,16.8,9.1,32.5,23.7,40.9L189.6,445c0.1,0.1,0.3,0.1,0.4,0.2c0,0,0.1,0,0.1,0.1
	c0.2,0.1,0.5,0.2,0.7,0.2c0.1,0,0.1,0,0.2,0c0.3,0,0.5,0.1,0.8,0.1c0.3,0,0.5,0,0.8-0.1c0.1,0,0.1,0,0.2,0c0.3-0.1,0.5-0.1,0.7-0.2
	c0,0,0.1,0,0.1,0c0.2-0.1,0.3-0.1,0.4-0.2l57.8-33.6c0,0,0.1-0.1,0.1-0.1c0.1-0.1,0.3-0.2,0.4-0.3c0.1-0.1,0.2-0.2,0.3-0.3
	c0.1-0.1,0.2-0.2,0.3-0.3c0.1-0.1,0.2-0.2,0.3-0.3c0.1-0.1,0.2-0.3,0.2-0.4c0.1-0.1,0.1-0.2,0.2-0.4c0.1-0.1,0.1-0.3,0.2-0.4
	c0-0.1,0.1-0.3,0.1-0.4c0-0.1,0.1-0.3,0.1-0.4c0-0.2,0-0.3,0-0.5c0-0.1,0-0.1,0-0.1L254.2,117.8L254.2,117.8
	C254.2,117.8,254.2,117.8,254.2,117.8z M196.4,154.2l48.7-28.5v279.1l-48.7,28.3V154.2z M17.9,15.2c6.8-4,14.6-6.1,22.5-6.1
	c7.8,0,15.5,2.1,22.3,6l177.9,102.7l-48.8,28.5L18,46c-4.7-2.7-7.7-7.2-8.6-12.3v-5.4c0-0.2,0-0.3,0-0.5
	C10.1,22.5,13.2,18,17.9,15.2z M9.4,308.7V51c1.3,1.1,2.6,2,4.1,2.9L24.1,60v235.6c0,2.5,2,4.6,4.6,4.6s4.6-2,4.6-4.6V65.3l154.1,89
	v278.9L33.2,344.4v-15.6c0-2.5-2-4.6-4.6-4.6s-4.6,2-4.6,4.6v10C14.9,331.6,9.4,320.5,9.4,308.7z M216.7,157.8v243.9
	c0,2.5-2,4.6-4.6,4.6c-2.5,0-4.6-2-4.6-4.6V157.8c0-2.5,2-4.6,4.6-4.6C214.7,153.2,216.7,155.3,216.7,157.8z M236.2,147.4v243.9
	c0,2.5-2,4.6-4.6,4.6c-2.5,0-4.6-2-4.6-4.6V147.4c0-2.5,2-4.6,4.6-4.6C234.2,142.8,236.2,144.9,236.2,147.4z M16,29.5
	c1.2-2.2,4-2.9,6.2-1.7L197,127.6c2.2,1.2,2.9,4,1.7,6.2c-0.8,1.5-2.4,2.3-4,2.3c-0.8,0-1.5-0.2-2.3-0.6L17.7,35.7
	C15.5,34.4,14.7,31.6,16,29.5z M33.5,15.7c1.2-2.2,4-2.9,6.2-1.7l174.8,99.8c2.2,1.2,2.9,4,1.7,6.2c-0.8,1.5-2.4,2.3-4,2.3
	c-0.8,0-1.5-0.2-2.3-0.6L35.2,21.9C33,20.7,32.2,17.9,33.5,15.7z M50.2,207l103.3,59.5c0.7,0.4,1.5,0.6,2.3,0.6
	c0.8,0,1.6-0.2,2.3-0.6c1.4-0.8,2.3-2.3,2.3-3.9v-80c0-1.6-0.9-3.1-2.3-4l-103.3-59c-1.4-0.8-3.1-0.8-4.5,0
	c-1.4,0.8-2.3,2.3-2.3,3.9v79.4C47.9,204.7,48.8,206.2,50.2,207z M57,131.5l94.2,53.8v69.4L57,200.4L57,131.5L57,131.5z"/>
</svg>
